<svg width="482" height="218" viewBox="0 0 482 218" fill="none" xmlns="http://www.w3.org/2000/svg">
<path d="M394.27 45.0205H376.01V126.981H394.27V45.0205Z" fill="#010101"/>
<path fill-rule="evenodd" clip-rule="evenodd" d="M86.8301 0.820312V74.8903H117.85V45.0203H136.11V74.8903V93.1503V126.98H117.85V93.1503H86.8301V126.98H68.5801V93.1503V74.8903V0.820312H86.8301Z" fill="#010101"/>
<path d="M171.59 45.0205H153.33V126.981H171.59V45.0205Z" fill="#010101"/>
<path fill-rule="evenodd" clip-rule="evenodd" d="M187.7 45H206L220.68 95.57L223.52 105.36C224.08 107.72 224.68 108.95 225.33 108.77C225.99 108.95 226.59 107.72 227.14 105.36L230 95.59L244.64 45H262.89L241.2 115.1L240.73 116.61L240.55 117.17C239.917 119.194 238.836 121.048 237.386 122.596C235.937 124.144 234.158 125.345 232.18 126.11C227.703 127.55 222.887 127.55 218.41 126.11C216.433 125.345 214.653 124.144 213.204 122.596C211.755 121.048 210.673 119.194 210.04 117.17L209.86 116.61L209.39 115.1L187.7 45Z" fill="#010101"/>
<path d="M358.33 0.820312H340.07V126.98H358.33V0.820312Z" fill="#010101"/>
<path fill-rule="evenodd" clip-rule="evenodd" d="M256 127.21H274.26L279.26 109.89H307.87L312.87 127.21H331.12L309.48 57.1301L309.01 55.6301L308.84 55.0701C308.206 53.0451 307.124 51.1894 305.673 49.6414C304.222 48.0934 302.44 46.8931 300.46 46.1301C298.271 45.2776 295.927 44.8927 293.58 45.0001C291.233 44.8847 288.887 45.2558 286.69 46.0901C284.711 46.8531 282.931 48.0535 281.481 49.6016C280.032 51.1497 278.951 53.0055 278.32 55.0301L278.14 55.5901L277.67 57.0901L256 127.21ZM284.59 91.6301L288.94 76.6301L291.79 66.8401C292.34 64.4801 292.94 63.2601 293.6 63.4401C294.25 63.2601 294.85 64.4401 295.41 66.8401L298.25 76.6301L302.61 91.6301H284.59Z" fill="#010101"/>
<path fill-rule="evenodd" clip-rule="evenodd" d="M430.2 0.820312V77.8103L456.72 44.8503H480.2L449.48 83.0303L480.94 126.98H457.46L430.2 88.9003V126.98H411.94V0.820312H430.2Z" fill="#010101"/>
<path fill-rule="evenodd" clip-rule="evenodd" d="M473.08 8.63044C473.084 8.82429 473.047 9.0167 472.971 9.19532C472.896 9.37395 472.784 9.53482 472.643 9.66761C472.501 9.8004 472.334 9.90217 472.151 9.96638C471.968 10.0306 471.774 10.0558 471.58 10.0404H469.63V7.23044H471.58C471.773 7.21358 471.967 7.23745 472.15 7.30048C472.333 7.36352 472.501 7.46432 472.642 7.59634C472.784 7.72835 472.896 7.88864 472.971 8.0668C473.047 8.24495 473.084 8.43699 473.08 8.63044ZM475.57 16.0004L473.21 11.4104C473.789 11.2136 474.288 10.8362 474.636 10.3339C474.983 9.83157 475.16 9.23091 475.14 8.62044C475.15 8.17512 475.066 7.73271 474.895 7.32154C474.724 6.91036 474.468 6.53948 474.146 6.23262C473.823 5.92576 473.439 5.68968 473.02 5.53949C472.601 5.38931 472.155 5.32832 471.71 5.36044H467.56V16.0004H469.63V11.7704H471.12L473.18 16.0004H475.57ZM471.12 0.820439C473.075 0.810539 474.988 1.38098 476.617 2.45947C478.247 3.53797 479.52 5.07597 480.275 6.87858C481.029 8.68119 481.232 10.6673 480.857 12.5851C480.482 14.503 479.545 16.2664 478.167 17.6517C476.789 19.0371 475.03 19.9821 473.114 20.367C471.198 20.7519 469.211 20.5594 467.405 19.8138C465.598 19.0683 464.054 17.8033 462.967 16.1791C461.88 14.5549 461.3 12.6447 461.3 10.6904C461.295 8.07978 462.326 5.5738 464.168 3.7231C466.009 1.8724 468.51 0.828385 471.12 0.820439Z" fill="#010101"/>
<path fill-rule="evenodd" clip-rule="evenodd" d="M1.25016 113.29C8.00016 115.21 14.0002 116.58 21.1102 116.58C24.9402 116.58 29.0302 116.2 32.0502 114.73C33.4738 114.092 34.6692 113.036 35.4768 111.701C36.2844 110.366 36.6658 108.817 36.5702 107.26C36.5702 100.98 28.1902 96.59 21.7902 93.26L19.4202 92C15.0002 89.66 10.4902 87.08 7.06016 83.67C5.13877 81.8829 3.60836 79.7173 2.56538 77.3095C1.52241 74.9017 0.989469 72.304 1.00016 69.68C1.00016 61.25 4.38016 55.36 9.65016 51.42C15.8102 46.82 24.5202 45 33.2602 45C35.8302 45 38.5402 45.18 41.2602 45.44C43.9802 45.7 46.6202 46.05 49.1202 46.44L51.0002 46.7V57.34L48.6002 57.06C48.1002 57.01 46.8202 56.84 45.4602 56.67C41.8161 56.1224 38.1432 55.7885 34.4602 55.67C30.8602 55.67 26.7102 56.16 23.9402 57.92C22.987 58.4895 22.2052 59.3058 21.6772 60.2826C21.1492 61.2594 20.8945 62.3606 20.9402 63.47C21.0687 65.2155 21.8465 66.8496 23.1202 68.05C25.3675 70.3224 27.9593 72.2258 30.8002 73.69C32.1402 74.43 33.4402 75.13 34.8002 75.83C45.7202 81.64 57.8002 88.06 57.8002 101.98C57.8002 110.59 54.2402 116.54 48.8002 120.5C42.1702 125.25 33.0002 127 24.0002 127C16.3064 126.979 8.64716 125.971 1.21016 124V113.3" fill="#010101"/>
<path d="M3.15012 153.48H7.82012C11.0001 153.48 13.2101 154.55 13.2101 157.31C13.2474 158.052 13.0436 158.787 12.629 159.403C12.2144 160.02 11.6114 160.485 10.9101 160.73V160.83C11.8223 160.929 12.6624 161.372 13.259 162.069C13.8556 162.766 14.1636 163.664 14.1201 164.58C14.1201 167.67 11.6701 169.18 8.12012 169.18H3.12012L3.15012 153.48ZM7.46012 160.15C10.1401 160.15 11.2401 159.15 11.2401 157.57C11.2401 155.75 10.0001 155.06 7.56012 155.06H5.14012V160.15H7.46012ZM7.87012 167.6C10.5701 167.6 12.1501 166.6 12.1501 164.51C12.1501 162.57 10.6201 161.69 7.87012 161.69H5.14012V167.6H7.87012Z" fill="#010101"/>
<path d="M22 162.69V153.48H24V162.74C24 166.52 25.6 167.74 27.66 167.74C29.72 167.74 31.37 166.54 31.37 162.74V153.48H33.29V162.69C33.29 167.74 30.87 169.47 27.66 169.47C24.45 169.47 22 167.74 22 162.69Z" fill="#010101"/>
<path d="M42.2402 153.48H44.2402V169.18H42.2402V153.48Z" fill="#010101"/>
<path d="M53.3301 153.48H55.3301V167.48H62.2001V169.18H53.3301V153.48Z" fill="#010101"/>
<path d="M69.75 153.48H73.67C78.51 153.48 81.09 156.28 81.09 161.26C81.09 166.24 78.51 169.18 73.77 169.18H69.77L69.75 153.48ZM73.53 167.55C77.19 167.55 79.04 165.23 79.04 161.26C79.04 157.29 77.19 155.1 73.53 155.1H71.74V167.55H73.53Z" fill="#010101"/>
<path d="M89.2603 153.48H91.2603V169.18H89.2603V153.48Z" fill="#010101"/>
<path d="M100.34 153.48H102.4L108.07 163.34L109.77 166.59H109.87C109.77 165.01 109.63 163.24 109.63 161.59V153.48H111.52V169.18H109.46L103.76 159.29L102.06 156.06H102C102.12 157.64 102.26 159.32 102.26 160.97V169.18H100.37L100.34 153.48Z" fill="#010101"/>
<path d="M119.71 161.33C119.71 156.28 122.71 153.19 126.91 153.19C127.759 153.175 128.602 153.34 129.383 153.674C130.164 154.008 130.865 154.505 131.44 155.13L130.33 156.42C129.907 155.947 129.387 155.57 128.806 155.315C128.224 155.06 127.595 154.932 126.96 154.94C123.8 154.94 121.77 157.38 121.77 161.28C121.77 165.18 123.63 167.72 126.98 167.72C128.004 167.755 129.006 167.425 129.81 166.79V162.69H126.48V161H131.63V167.61C130.984 168.219 130.223 168.693 129.392 169.005C128.562 169.318 127.677 169.462 126.79 169.43C122.65 169.47 119.71 166.45 119.71 161.33Z" fill="#010101"/>
<path d="M149.75 153.48H151.75V167.48H158.62V169.18H149.77L149.75 153.48Z" fill="#010101"/>
<path d="M169.47 153.48H171.72L177.04 169.18H174.91L173.42 164.39H167.7L166.19 169.18H164.19L169.47 153.48ZM168.2 162.79H172.92L172.18 160.39C171.6 158.65 171.1 156.92 170.6 155.1H170.5C170.02 156.92 169.5 158.65 168.95 160.39L168.2 162.79Z" fill="#010101"/>
<path d="M184.05 153.48H186.11L191.78 163.34L193.48 166.59H193.58C193.48 165.01 193.34 163.24 193.34 161.59V153.48H195.23V169.18H193.17L187.47 159.29L185.77 156.06H185.68C185.8 157.64 185.94 159.32 185.94 160.97V169.18H184.05V153.48Z" fill="#010101"/>
<path d="M204.33 153.48H208.25C213.09 153.48 215.67 156.28 215.67 161.26C215.67 166.24 213.09 169.18 208.35 169.18H204.35L204.33 153.48ZM208.11 167.55C211.77 167.55 213.61 165.23 213.61 161.26C213.61 157.29 211.77 155.1 208.11 155.1H206.31V167.55H208.11Z" fill="#010101"/>
<path d="M223.84 153.48H226.23L229.23 161.85C229.62 162.93 229.98 164.06 230.36 165.13H230.46C230.84 164.06 231.15 162.93 231.53 161.85L234.53 153.48H236.95V169.18H235.08V160.54C235.08 159.15 235.25 157.28 235.34 155.89H235.25L234 159.46L231 167.6H229.7L226.7 159.46L225.46 155.89H225.36C225.46 157.28 225.6 159.15 225.6 160.54V169.18H223.81L223.84 153.48Z" fill="#010101"/>
<path d="M249.26 153.48H251.51L256.82 169.18H254.69L253.21 164.39H247.49L246 169.18H244L249.26 153.48ZM248 162.79H252.71L251.97 160.39C251.4 158.65 250.89 156.92 250.39 155.1H250.3C249.82 156.92 249.3 158.65 248.74 160.39L248 162.79Z" fill="#010101"/>
<path d="M263.84 153.48H268.74C271.95 153.48 274.25 154.63 274.25 157.88C274.307 158.927 273.978 159.958 273.326 160.778C272.673 161.599 271.743 162.151 270.71 162.33L274.71 169.18H272.46L268.68 162.55H265.83V169.18H263.83L263.84 153.48ZM268.46 160.92C270.9 160.92 272.26 159.92 272.26 157.92C272.26 155.92 270.9 155.12 268.46 155.12H265.82V160.96L268.46 160.92Z" fill="#010101"/>
<path d="M282.24 153.48H284.24V161.35H284.31L290.85 153.48H293.1L288.19 159.48L293.86 169.2H291.64L286.94 161L284.23 164.18V169.18H282.23L282.24 153.48Z" fill="#010101"/>
<path d="M299.53 167.141L300.72 165.761C301.275 166.366 301.944 166.854 302.689 167.197C303.434 167.541 304.24 167.732 305.06 167.761C307.11 167.761 308.34 166.761 308.34 165.201C308.34 163.641 307.21 163.091 305.73 162.421L303.48 161.421C301.99 160.801 300.29 159.671 300.29 157.371C300.29 155.071 302.38 153.211 305.22 153.211C306.085 153.21 306.942 153.381 307.74 153.714C308.538 154.047 309.262 154.536 309.87 155.151L308.79 156.441C308.323 155.97 307.767 155.596 307.154 155.342C306.541 155.088 305.884 154.958 305.22 154.961C303.48 154.961 302.3 155.841 302.3 157.251C302.3 158.661 303.67 159.341 304.91 159.861L307.14 160.861C308.96 161.651 310.37 162.731 310.37 165.051C310.37 167.541 308.37 169.531 305.03 169.531C303.999 169.528 302.979 169.315 302.034 168.904C301.088 168.493 300.236 167.893 299.53 167.141Z" fill="#010101"/>
<path d="M326.67 167.141L327.87 165.761C328.423 166.365 329.091 166.852 329.834 167.195C330.578 167.539 331.382 167.731 332.2 167.761C334.26 167.761 335.48 166.761 335.48 165.201C335.48 163.641 334.36 163.091 332.87 162.421L330.62 161.421C329.14 160.801 327.44 159.671 327.44 157.371C327.44 155.071 329.52 153.211 332.37 153.211C333.233 153.209 334.089 153.38 334.885 153.713C335.682 154.046 336.404 154.535 337.01 155.151L335.94 156.441C335.473 155.97 334.917 155.596 334.304 155.342C333.691 155.088 333.033 154.958 332.37 154.961C330.62 154.961 329.45 155.841 329.45 157.251C329.45 158.661 330.81 159.341 332.06 159.861L334.29 160.861C336.1 161.651 337.52 162.731 337.52 165.051C337.52 167.541 335.52 169.531 332.18 169.531C331.147 169.527 330.126 169.313 329.179 168.903C328.232 168.492 327.378 167.892 326.67 167.141Z" fill="#010101"/>
<path d="M345.39 153.48H347.39V169.18H345.39V153.48Z" fill="#010101"/>
<path d="M356.48 153.48H358.48L364.16 163.34L365.86 166.59H366C365.91 165.01 365.76 163.24 365.76 161.59V153.48H367.65V169.18H365.59L359.9 159.29L358.2 156.06H358.1C358.22 157.64 358.37 159.32 358.37 160.97V169.18H356.48V153.48Z" fill="#010101"/>
<path d="M375.84 161.33C375.84 156.28 378.84 153.19 382.84 153.19C383.655 153.189 384.461 153.362 385.204 153.696C385.947 154.031 386.611 154.52 387.15 155.13L386 156.42C385.6 155.961 385.107 155.592 384.554 155.337C384 155.082 383.4 154.947 382.79 154.94C379.79 154.94 377.86 157.38 377.86 161.28C377.86 165.18 379.75 167.72 382.72 167.72C383.423 167.724 384.117 167.571 384.753 167.274C385.39 166.976 385.952 166.541 386.4 166L387.5 167.24C386.924 167.96 386.191 168.54 385.358 168.935C384.525 169.33 383.613 169.53 382.69 169.52C378.76 169.47 375.84 166.45 375.84 161.33Z" fill="#010101"/>
<path d="M395.21 153.48H404.26V155.15H397.19V160.08H403.19V161.78H397.19V167.48H404.49V169.18H395.21V153.48Z" fill="#010101"/>
<path d="M421.92 167.551H425.42V156.301H422.64V155.001C423.777 154.834 424.873 154.454 425.87 153.881H427.38V167.521H430.54V169.151H421.92V167.551Z" fill="#010101"/>
<path d="M437.94 167.86L439.04 166.62C439.346 166.992 439.729 167.294 440.162 167.505C440.595 167.715 441.069 167.83 441.55 167.84C443.71 167.84 445.55 166.16 445.6 161.28C445.187 161.858 444.651 162.338 444.03 162.684C443.409 163.03 442.719 163.233 442.01 163.28C439.37 163.28 437.67 161.7 437.67 158.57C437.631 157.949 437.718 157.327 437.925 156.741C438.132 156.154 438.455 155.616 438.875 155.157C439.295 154.699 439.804 154.33 440.37 154.073C440.936 153.815 441.549 153.675 442.17 153.66C445.17 153.66 447.44 156.1 447.44 161.01C447.44 167.14 444.66 169.51 441.62 169.51C440.925 169.514 440.236 169.369 439.601 169.084C438.967 168.799 438.4 168.382 437.94 167.86ZM445.55 159.72C445.29 156.72 444.11 155.18 442.17 155.18C440.69 155.18 439.52 156.52 439.52 158.53C439.52 160.54 440.45 161.76 442.34 161.76C443.001 161.707 443.639 161.494 444.198 161.138C444.758 160.783 445.222 160.296 445.55 159.72Z" fill="#010101"/>
<path d="M454.62 167.86L455.72 166.62C456.029 166.992 456.413 167.293 456.848 167.503C457.283 167.714 457.757 167.829 458.24 167.84C460.39 167.84 462.24 166.16 462.24 161.28C461.828 161.859 461.292 162.339 460.671 162.685C460.05 163.031 459.36 163.234 458.65 163.28C456.02 163.28 454.32 161.7 454.32 158.57C454.281 157.949 454.367 157.327 454.575 156.741C454.782 156.154 455.105 155.616 455.525 155.157C455.945 154.699 456.454 154.33 457.02 154.073C457.586 153.815 458.198 153.675 458.82 153.66C461.82 153.66 464.08 156.1 464.08 161.01C464.08 167.14 461.31 169.51 458.27 169.51C457.58 169.508 456.898 169.36 456.269 169.076C455.639 168.792 455.078 168.377 454.62 167.86ZM462.23 159.72C461.97 156.72 460.8 155.18 458.86 155.18C457.37 155.18 456.2 156.52 456.2 158.53C456.2 160.54 457.13 161.76 459.03 161.76C459.689 161.706 460.325 161.491 460.883 161.136C461.44 160.78 461.903 160.295 462.23 159.72Z" fill="#010101"/>
<path d="M471.07 165.28C471.124 164.396 471.42 163.544 471.926 162.817C472.433 162.09 473.13 161.517 473.94 161.161V161.06C473.321 160.699 472.801 160.189 472.429 159.576C472.057 158.963 471.845 158.267 471.81 157.551C471.81 155.201 473.68 153.62 476.14 153.62C476.697 153.577 477.257 153.651 477.783 153.837C478.31 154.023 478.791 154.317 479.197 154.7C479.603 155.084 479.925 155.548 480.14 156.063C480.356 156.578 480.462 157.132 480.45 157.691C480.391 158.423 480.172 159.133 479.807 159.771C479.442 160.409 478.942 160.958 478.34 161.381V161.471C479.71 162.261 481 163.34 481 165.4C481 167.67 479 169.471 476.07 169.471C473.14 169.471 471.07 167.69 471.07 165.28ZM479.07 165.28C479.07 163.28 477.13 162.601 474.93 161.721C474.325 162.053 473.813 162.532 473.441 163.114C473.069 163.696 472.849 164.362 472.8 165.051C472.809 165.462 472.903 165.868 473.076 166.242C473.249 166.616 473.497 166.95 473.805 167.224C474.113 167.498 474.473 167.706 474.865 167.834C475.256 167.963 475.67 168.009 476.08 167.971C476.457 168.014 476.838 167.978 477.2 167.865C477.562 167.752 477.896 167.565 478.181 167.316C478.467 167.066 478.697 166.76 478.857 166.416C479.017 166.073 479.103 165.699 479.11 165.321L479.07 165.28ZM478.71 157.741C478.732 157.384 478.678 157.027 478.552 156.692C478.427 156.357 478.232 156.053 477.981 155.798C477.731 155.544 477.429 155.345 477.096 155.214C476.764 155.084 476.407 155.024 476.05 155.04C475.723 155.026 475.396 155.08 475.09 155.2C474.784 155.319 474.507 155.5 474.275 155.733C474.044 155.965 473.864 156.243 473.746 156.549C473.628 156.856 473.575 157.183 473.59 157.51C473.59 159.33 475.26 160.09 477.11 160.81C477.587 160.454 477.98 159.999 478.263 159.476C478.546 158.953 478.712 158.374 478.75 157.78L478.71 157.741Z" fill="#010101"/>
<path fill-rule="evenodd" clip-rule="evenodd" d="M407.7 194.781C407.7 193.521 407.24 192.341 403.89 192.341H401.56V197.341H403.77C407.7 197.311 407.7 195.411 407.7 194.781Z" fill="#010101"/>
<path fill-rule="evenodd" clip-rule="evenodd" d="M461.49 193.581C461.04 195.201 460.57 196.741 460.08 198.241L459.42 200.391H463.58L462.91 198.231C462.44 196.811 462 195.331 461.49 193.581Z" fill="#010101"/>
<path fill-rule="evenodd" clip-rule="evenodd" d="M404.25 200.101H401.56V206.001H404.25C407.25 206.001 408.76 205.001 408.76 202.891C408.76 202.211 408.76 200.101 404.25 200.101Z" fill="#010101"/>
<path fill-rule="evenodd" clip-rule="evenodd" d="M477 181.181H391C389.939 181.181 388.922 181.602 388.172 182.352C387.421 183.102 387 184.12 387 185.181V213.181C387 214.242 387.421 215.259 388.172 216.009C388.922 216.759 389.939 217.181 391 217.181H477C478.061 217.181 479.078 216.759 479.828 216.009C480.579 215.259 481 214.242 481 213.181V185.181C481 184.12 480.579 183.102 479.828 182.352C479.078 181.602 478.061 181.181 477 181.181ZM404.59 208.861H398.23V189.491H404.23C409.85 189.491 411.03 192.201 411.03 194.491C411.055 195.259 410.89 196.021 410.55 196.71C410.21 197.399 409.705 197.994 409.08 198.441C410.003 198.781 410.793 199.409 411.333 200.232C411.872 201.054 412.134 202.028 412.08 203.011C412.06 206.671 409.26 208.861 404.59 208.861ZM430.76 208.861H418.9V189.491H430.48V192.491H422.22V197.261H429.22V200.261H422.22V205.921H430.76V208.861ZM450.56 192.451H445V208.861H441.65V192.451H436.11V189.451H450.55L450.56 192.451ZM466.21 208.861L464.47 203.261H458.47L456.7 208.861H453.26L459.81 189.491H463.16L469.72 208.861H466.21Z" fill="#010101"/>
</svg>
